<mxfile host="app.diagrams.net" modified="2023-09-11T08:33:42.071Z" agent="Mozilla/5.0 (Macintosh; Intel Mac OS X 10_15_7) AppleWebKit/605.1.15 (KHTML, like Gecko) Version/16.5.2 Safari/605.1.15" etag="xDyEJrF6x_3xS2jX9rp-" version="21.7.4" type="device">
  <diagram name="Page-1" id="2YBvvXClWsGukQMizWep">
    <mxGraphModel dx="984" dy="750" grid="1" gridSize="10" guides="1" tooltips="1" connect="1" arrows="1" fold="1" page="1" pageScale="1" pageWidth="850" pageHeight="1100" math="0" shadow="0">
      <root>
        <mxCell id="0" />
        <mxCell id="1" parent="0" />
        <mxCell id="aM9ryv3xv72pqoxQDRHE-1" value="Front Service" style="shape=umlLifeline;perimeter=lifelinePerimeter;whiteSpace=wrap;html=1;container=0;dropTarget=0;collapsible=0;recursiveResize=0;outlineConnect=0;portConstraint=eastwest;newEdgeStyle={&quot;edgeStyle&quot;:&quot;elbowEdgeStyle&quot;,&quot;elbow&quot;:&quot;vertical&quot;,&quot;curved&quot;:0,&quot;rounded&quot;:0};" parent="1" vertex="1">
          <mxGeometry x="170" y="40" width="100" height="1240" as="geometry" />
        </mxCell>
        <mxCell id="tgeR2nkM4_BLuT0nxEA1-6" value="" style="html=1;points=[];perimeter=orthogonalPerimeter;outlineConnect=0;targetShapes=umlLifeline;portConstraint=eastwest;newEdgeStyle={&quot;edgeStyle&quot;:&quot;elbowEdgeStyle&quot;,&quot;elbow&quot;:&quot;vertical&quot;,&quot;curved&quot;:0,&quot;rounded&quot;:0};" vertex="1" parent="aM9ryv3xv72pqoxQDRHE-1">
          <mxGeometry x="45" y="60" width="10" height="140" as="geometry" />
        </mxCell>
        <mxCell id="tgeR2nkM4_BLuT0nxEA1-25" style="edgeStyle=elbowEdgeStyle;rounded=0;orthogonalLoop=1;jettySize=auto;html=1;elbow=vertical;curved=0;" edge="1" parent="1" target="tgeR2nkM4_BLuT0nxEA1-7">
          <mxGeometry relative="1" as="geometry">
            <mxPoint x="225" y="409" as="sourcePoint" />
            <mxPoint x="635" y="409" as="targetPoint" />
          </mxGeometry>
        </mxCell>
        <mxCell id="tgeR2nkM4_BLuT0nxEA1-26" value="checkDOPA(fullname, ID no, laser id)" style="edgeLabel;html=1;align=center;verticalAlign=middle;resizable=0;points=[];" vertex="1" connectable="0" parent="tgeR2nkM4_BLuT0nxEA1-25">
          <mxGeometry x="-0.1218" y="-1" relative="1" as="geometry">
            <mxPoint x="3" y="-16" as="offset" />
          </mxGeometry>
        </mxCell>
        <mxCell id="tgeR2nkM4_BLuT0nxEA1-18" value="" style="html=1;points=[];perimeter=orthogonalPerimeter;outlineConnect=0;targetShapes=umlLifeline;portConstraint=eastwest;newEdgeStyle={&quot;edgeStyle&quot;:&quot;elbowEdgeStyle&quot;,&quot;elbow&quot;:&quot;vertical&quot;,&quot;curved&quot;:0,&quot;rounded&quot;:0};" vertex="1" parent="1">
          <mxGeometry x="215" y="270" width="10" height="220" as="geometry" />
        </mxCell>
        <mxCell id="tgeR2nkM4_BLuT0nxEA1-14" value="Cache" style="shape=umlLifeline;perimeter=lifelinePerimeter;whiteSpace=wrap;html=1;container=0;dropTarget=0;collapsible=0;recursiveResize=0;outlineConnect=0;portConstraint=eastwest;newEdgeStyle={&quot;edgeStyle&quot;:&quot;elbowEdgeStyle&quot;,&quot;elbow&quot;:&quot;vertical&quot;,&quot;curved&quot;:0,&quot;rounded&quot;:0};fontStyle=0" vertex="1" parent="1">
          <mxGeometry x="300" y="40" width="100" height="1240" as="geometry" />
        </mxCell>
        <mxCell id="tgeR2nkM4_BLuT0nxEA1-20" value="" style="html=1;points=[];perimeter=orthogonalPerimeter;outlineConnect=0;targetShapes=umlLifeline;portConstraint=eastwest;newEdgeStyle={&quot;edgeStyle&quot;:&quot;elbowEdgeStyle&quot;,&quot;elbow&quot;:&quot;vertical&quot;,&quot;curved&quot;:0,&quot;rounded&quot;:0};" vertex="1" parent="tgeR2nkM4_BLuT0nxEA1-14">
          <mxGeometry x="45" y="260" width="10" height="30" as="geometry" />
        </mxCell>
        <mxCell id="tgeR2nkM4_BLuT0nxEA1-44" value="" style="html=1;points=[];perimeter=orthogonalPerimeter;outlineConnect=0;targetShapes=umlLifeline;portConstraint=eastwest;newEdgeStyle={&quot;edgeStyle&quot;:&quot;elbowEdgeStyle&quot;,&quot;elbow&quot;:&quot;vertical&quot;,&quot;curved&quot;:0,&quot;rounded&quot;:0};" vertex="1" parent="tgeR2nkM4_BLuT0nxEA1-14">
          <mxGeometry x="45" y="730" width="10" height="30" as="geometry" />
        </mxCell>
        <mxCell id="tgeR2nkM4_BLuT0nxEA1-45" value="get(session id)" style="edgeStyle=elbowEdgeStyle;rounded=0;orthogonalLoop=1;jettySize=auto;html=1;elbow=vertical;curved=0;" edge="1" parent="tgeR2nkM4_BLuT0nxEA1-14">
          <mxGeometry x="0.0438" y="10" relative="1" as="geometry">
            <mxPoint x="-75" y="730" as="sourcePoint" />
            <mxPoint x="45" y="730" as="targetPoint" />
            <mxPoint x="1" as="offset" />
          </mxGeometry>
        </mxCell>
        <mxCell id="tgeR2nkM4_BLuT0nxEA1-46" value="fullname, email, step" style="html=1;verticalAlign=bottom;endArrow=open;dashed=1;endSize=8;edgeStyle=elbowEdgeStyle;elbow=vertical;curved=0;rounded=0;" edge="1" parent="tgeR2nkM4_BLuT0nxEA1-14">
          <mxGeometry relative="1" as="geometry">
            <mxPoint x="-75" y="756" as="targetPoint" />
            <Array as="points">
              <mxPoint x="-30" y="756" />
            </Array>
            <mxPoint x="45" y="756" as="sourcePoint" />
            <mxPoint as="offset" />
          </mxGeometry>
        </mxCell>
        <mxCell id="tgeR2nkM4_BLuT0nxEA1-47" value="verify step == change email" style="html=1;verticalAlign=bottom;endArrow=block;edgeStyle=elbowEdgeStyle;elbow=horizontal;curved=0;rounded=0;" edge="1" parent="tgeR2nkM4_BLuT0nxEA1-14">
          <mxGeometry x="0.075" y="10" relative="1" as="geometry">
            <mxPoint x="-75" y="779" as="sourcePoint" />
            <Array as="points">
              <mxPoint x="-10" y="779" />
            </Array>
            <mxPoint x="-75" y="809" as="targetPoint" />
            <mxPoint as="offset" />
          </mxGeometry>
        </mxCell>
        <mxCell id="tgeR2nkM4_BLuT0nxEA1-7" value="CORE Service" style="shape=umlLifeline;perimeter=lifelinePerimeter;whiteSpace=wrap;html=1;container=0;dropTarget=0;collapsible=0;recursiveResize=0;outlineConnect=0;portConstraint=eastwest;newEdgeStyle={&quot;edgeStyle&quot;:&quot;elbowEdgeStyle&quot;,&quot;elbow&quot;:&quot;vertical&quot;,&quot;curved&quot;:0,&quot;rounded&quot;:0};" vertex="1" parent="1">
          <mxGeometry x="440" y="40" width="100" height="1240" as="geometry" />
        </mxCell>
        <mxCell id="tgeR2nkM4_BLuT0nxEA1-8" value="" style="html=1;points=[];perimeter=orthogonalPerimeter;outlineConnect=0;targetShapes=umlLifeline;portConstraint=eastwest;newEdgeStyle={&quot;edgeStyle&quot;:&quot;elbowEdgeStyle&quot;,&quot;elbow&quot;:&quot;vertical&quot;,&quot;curved&quot;:0,&quot;rounded&quot;:0};" vertex="1" parent="tgeR2nkM4_BLuT0nxEA1-7">
          <mxGeometry x="45" y="80" width="10" height="60" as="geometry" />
        </mxCell>
        <mxCell id="tgeR2nkM4_BLuT0nxEA1-68" value="" style="html=1;points=[];perimeter=orthogonalPerimeter;outlineConnect=0;targetShapes=umlLifeline;portConstraint=eastwest;newEdgeStyle={&quot;edgeStyle&quot;:&quot;elbowEdgeStyle&quot;,&quot;elbow&quot;:&quot;vertical&quot;,&quot;curved&quot;:0,&quot;rounded&quot;:0};" vertex="1" parent="tgeR2nkM4_BLuT0nxEA1-7">
          <mxGeometry x="45" y="370" width="10" height="40" as="geometry" />
        </mxCell>
        <mxCell id="aM9ryv3xv72pqoxQDRHE-5" value="DOPA Service" style="shape=umlLifeline;perimeter=lifelinePerimeter;whiteSpace=wrap;html=1;container=0;dropTarget=0;collapsible=0;recursiveResize=0;outlineConnect=0;portConstraint=eastwest;newEdgeStyle={&quot;edgeStyle&quot;:&quot;elbowEdgeStyle&quot;,&quot;elbow&quot;:&quot;vertical&quot;,&quot;curved&quot;:0,&quot;rounded&quot;:0};" parent="1" vertex="1">
          <mxGeometry x="590" y="40" width="100" height="1240" as="geometry" />
        </mxCell>
        <mxCell id="tgeR2nkM4_BLuT0nxEA1-27" value="" style="html=1;points=[];perimeter=orthogonalPerimeter;outlineConnect=0;targetShapes=umlLifeline;portConstraint=eastwest;newEdgeStyle={&quot;edgeStyle&quot;:&quot;elbowEdgeStyle&quot;,&quot;elbow&quot;:&quot;vertical&quot;,&quot;curved&quot;:0,&quot;rounded&quot;:0};" vertex="1" parent="aM9ryv3xv72pqoxQDRHE-5">
          <mxGeometry x="45" y="370" width="10" height="30" as="geometry" />
        </mxCell>
        <mxCell id="tgeR2nkM4_BLuT0nxEA1-5" value="register(register ref, ID no)" style="edgeStyle=elbowEdgeStyle;rounded=0;orthogonalLoop=1;jettySize=auto;html=1;elbow=vertical;curved=0;" edge="1" parent="1" source="tgeR2nkM4_BLuT0nxEA1-1">
          <mxGeometry y="10" relative="1" as="geometry">
            <mxPoint x="59.5" y="110" as="sourcePoint" />
            <mxPoint x="215" y="110" as="targetPoint" />
            <mxPoint as="offset" />
          </mxGeometry>
        </mxCell>
        <mxCell id="tgeR2nkM4_BLuT0nxEA1-31" style="edgeStyle=elbowEdgeStyle;rounded=0;orthogonalLoop=1;jettySize=auto;html=1;elbow=vertical;curved=0;" edge="1" parent="1">
          <mxGeometry relative="1" as="geometry">
            <mxPoint x="59.5" y="530" as="sourcePoint" />
            <mxPoint x="215" y="530" as="targetPoint" />
          </mxGeometry>
        </mxCell>
        <mxCell id="tgeR2nkM4_BLuT0nxEA1-32" value="changeEmail(session id, email)" style="edgeLabel;html=1;align=center;verticalAlign=middle;resizable=0;points=[];" vertex="1" connectable="0" parent="tgeR2nkM4_BLuT0nxEA1-31">
          <mxGeometry x="-0.2646" y="-1" relative="1" as="geometry">
            <mxPoint x="17" y="-21" as="offset" />
          </mxGeometry>
        </mxCell>
        <mxCell id="tgeR2nkM4_BLuT0nxEA1-1" value="Client" style="shape=umlLifeline;perimeter=lifelinePerimeter;whiteSpace=wrap;html=1;container=0;dropTarget=0;collapsible=0;recursiveResize=0;outlineConnect=0;portConstraint=eastwest;newEdgeStyle={&quot;edgeStyle&quot;:&quot;elbowEdgeStyle&quot;,&quot;elbow&quot;:&quot;vertical&quot;,&quot;curved&quot;:0,&quot;rounded&quot;:0};" vertex="1" parent="1">
          <mxGeometry x="10" y="40" width="100" height="1240" as="geometry" />
        </mxCell>
        <mxCell id="tgeR2nkM4_BLuT0nxEA1-3" value="OTP Service" style="shape=umlLifeline;perimeter=lifelinePerimeter;whiteSpace=wrap;html=1;container=0;dropTarget=0;collapsible=0;recursiveResize=0;outlineConnect=0;portConstraint=eastwest;newEdgeStyle={&quot;edgeStyle&quot;:&quot;elbowEdgeStyle&quot;,&quot;elbow&quot;:&quot;vertical&quot;,&quot;curved&quot;:0,&quot;rounded&quot;:0};fontStyle=0" vertex="1" parent="1">
          <mxGeometry x="720" y="40" width="100" height="1240" as="geometry" />
        </mxCell>
        <mxCell id="tgeR2nkM4_BLuT0nxEA1-4" value="" style="html=1;points=[];perimeter=orthogonalPerimeter;outlineConnect=0;targetShapes=umlLifeline;portConstraint=eastwest;newEdgeStyle={&quot;edgeStyle&quot;:&quot;elbowEdgeStyle&quot;,&quot;elbow&quot;:&quot;vertical&quot;,&quot;curved&quot;:0,&quot;rounded&quot;:0};" vertex="1" parent="tgeR2nkM4_BLuT0nxEA1-3">
          <mxGeometry x="45" y="820" width="10" height="50" as="geometry" />
        </mxCell>
        <mxCell id="tgeR2nkM4_BLuT0nxEA1-9" style="edgeStyle=elbowEdgeStyle;rounded=0;orthogonalLoop=1;jettySize=auto;html=1;elbow=vertical;curved=0;" edge="1" parent="1" target="tgeR2nkM4_BLuT0nxEA1-7">
          <mxGeometry relative="1" as="geometry">
            <mxPoint x="225" y="130" as="sourcePoint" />
            <mxPoint x="420" y="130" as="targetPoint" />
          </mxGeometry>
        </mxCell>
        <mxCell id="tgeR2nkM4_BLuT0nxEA1-10" value="checkRef(register ref)" style="edgeLabel;html=1;align=center;verticalAlign=middle;resizable=0;points=[];" vertex="1" connectable="0" parent="tgeR2nkM4_BLuT0nxEA1-9">
          <mxGeometry x="-0.2103" relative="1" as="geometry">
            <mxPoint x="-2" y="-10" as="offset" />
          </mxGeometry>
        </mxCell>
        <mxCell id="tgeR2nkM4_BLuT0nxEA1-11" value="check result" style="html=1;verticalAlign=bottom;endArrow=open;dashed=1;endSize=8;edgeStyle=elbowEdgeStyle;elbow=vertical;curved=0;rounded=0;" edge="1" parent="1" source="tgeR2nkM4_BLuT0nxEA1-8" target="tgeR2nkM4_BLuT0nxEA1-6">
          <mxGeometry relative="1" as="geometry">
            <mxPoint x="190" y="280" as="targetPoint" />
            <Array as="points">
              <mxPoint x="300" y="160" />
            </Array>
            <mxPoint x="390" y="230" as="sourcePoint" />
            <mxPoint as="offset" />
          </mxGeometry>
        </mxCell>
        <mxCell id="tgeR2nkM4_BLuT0nxEA1-16" value="set(session id, ID No, step)" style="edgeStyle=elbowEdgeStyle;rounded=0;orthogonalLoop=1;jettySize=auto;html=1;elbow=vertical;curved=0;" edge="1" parent="1">
          <mxGeometry x="0.0438" y="10" relative="1" as="geometry">
            <mxPoint x="225" y="196.5" as="sourcePoint" />
            <mxPoint x="349.5" y="196.5" as="targetPoint" />
            <mxPoint x="1" as="offset" />
          </mxGeometry>
        </mxCell>
        <mxCell id="tgeR2nkM4_BLuT0nxEA1-17" value="session id" style="html=1;verticalAlign=bottom;endArrow=open;dashed=1;endSize=8;edgeStyle=elbowEdgeStyle;elbow=vertical;curved=0;rounded=0;" edge="1" parent="1" source="tgeR2nkM4_BLuT0nxEA1-6" target="tgeR2nkM4_BLuT0nxEA1-1">
          <mxGeometry relative="1" as="geometry">
            <mxPoint x="69.5" y="217" as="targetPoint" />
            <Array as="points">
              <mxPoint x="130" y="217" />
            </Array>
            <mxPoint x="219.5" y="217" as="sourcePoint" />
          </mxGeometry>
        </mxCell>
        <mxCell id="tgeR2nkM4_BLuT0nxEA1-19" value="verifyDOPA(season id, fullname, laser id)" style="edgeStyle=elbowEdgeStyle;rounded=0;orthogonalLoop=1;jettySize=auto;html=1;elbow=vertical;curved=0;" edge="1" parent="1" source="tgeR2nkM4_BLuT0nxEA1-1">
          <mxGeometry y="20" relative="1" as="geometry">
            <mxPoint x="69.5" y="290" as="sourcePoint" />
            <mxPoint x="215" y="290" as="targetPoint" />
            <mxPoint as="offset" />
          </mxGeometry>
        </mxCell>
        <mxCell id="tgeR2nkM4_BLuT0nxEA1-21" value="get(session id)" style="edgeStyle=elbowEdgeStyle;rounded=0;orthogonalLoop=1;jettySize=auto;html=1;elbow=vertical;curved=0;" edge="1" parent="1">
          <mxGeometry x="0.0438" y="10" relative="1" as="geometry">
            <mxPoint x="225" y="300" as="sourcePoint" />
            <mxPoint x="345" y="300" as="targetPoint" />
            <mxPoint x="1" as="offset" />
          </mxGeometry>
        </mxCell>
        <mxCell id="tgeR2nkM4_BLuT0nxEA1-22" value="step" style="html=1;verticalAlign=bottom;endArrow=open;dashed=1;endSize=8;edgeStyle=elbowEdgeStyle;elbow=vertical;curved=0;rounded=0;" edge="1" parent="1">
          <mxGeometry relative="1" as="geometry">
            <mxPoint x="225" y="326" as="targetPoint" />
            <Array as="points">
              <mxPoint x="270" y="326" />
            </Array>
            <mxPoint x="345" y="326" as="sourcePoint" />
          </mxGeometry>
        </mxCell>
        <mxCell id="tgeR2nkM4_BLuT0nxEA1-24" value="verify step == register" style="html=1;verticalAlign=bottom;endArrow=block;edgeStyle=elbowEdgeStyle;elbow=horizontal;curved=0;rounded=0;" edge="1" parent="1">
          <mxGeometry x="0.0625" relative="1" as="geometry">
            <mxPoint x="225" y="349" as="sourcePoint" />
            <Array as="points">
              <mxPoint x="290" y="349" />
            </Array>
            <mxPoint x="225" y="379" as="targetPoint" />
            <mxPoint as="offset" />
          </mxGeometry>
        </mxCell>
        <mxCell id="tgeR2nkM4_BLuT0nxEA1-28" value="return result" style="html=1;verticalAlign=bottom;endArrow=open;dashed=1;endSize=8;edgeStyle=elbowEdgeStyle;elbow=vertical;curved=0;rounded=0;" edge="1" parent="1">
          <mxGeometry relative="1" as="geometry">
            <mxPoint x="225" y="450" as="targetPoint" />
            <Array as="points">
              <mxPoint x="303" y="450" />
            </Array>
            <mxPoint x="489.5" y="450" as="sourcePoint" />
          </mxGeometry>
        </mxCell>
        <mxCell id="tgeR2nkM4_BLuT0nxEA1-29" value="return result" style="html=1;verticalAlign=bottom;endArrow=open;dashed=1;endSize=8;edgeStyle=elbowEdgeStyle;elbow=horizontal;curved=0;rounded=0;" edge="1" parent="1">
          <mxGeometry x="0.0032" relative="1" as="geometry">
            <mxPoint x="59.5" y="485" as="targetPoint" />
            <Array as="points">
              <mxPoint x="70" y="580" />
            </Array>
            <mxPoint x="215" y="485" as="sourcePoint" />
            <mxPoint as="offset" />
          </mxGeometry>
        </mxCell>
        <mxCell id="tgeR2nkM4_BLuT0nxEA1-30" value="" style="html=1;points=[];perimeter=orthogonalPerimeter;outlineConnect=0;targetShapes=umlLifeline;portConstraint=eastwest;newEdgeStyle={&quot;edgeStyle&quot;:&quot;elbowEdgeStyle&quot;,&quot;elbow&quot;:&quot;vertical&quot;,&quot;curved&quot;:0,&quot;rounded&quot;:0};" vertex="1" parent="1">
          <mxGeometry x="215" y="510" width="10" height="190" as="geometry" />
        </mxCell>
        <mxCell id="tgeR2nkM4_BLuT0nxEA1-33" value="set(session id, step)" style="edgeStyle=elbowEdgeStyle;rounded=0;orthogonalLoop=1;jettySize=auto;html=1;elbow=vertical;curved=0;" edge="1" parent="1">
          <mxGeometry x="0.5261" y="10" relative="1" as="geometry">
            <mxPoint x="225" y="476" as="sourcePoint" />
            <mxPoint x="349.5" y="476" as="targetPoint" />
            <mxPoint as="offset" />
          </mxGeometry>
        </mxCell>
        <mxCell id="tgeR2nkM4_BLuT0nxEA1-35" value="" style="html=1;points=[];perimeter=orthogonalPerimeter;outlineConnect=0;targetShapes=umlLifeline;portConstraint=eastwest;newEdgeStyle={&quot;edgeStyle&quot;:&quot;elbowEdgeStyle&quot;,&quot;elbow&quot;:&quot;vertical&quot;,&quot;curved&quot;:0,&quot;rounded&quot;:0};" vertex="1" parent="1">
          <mxGeometry x="345" y="540" width="10" height="30" as="geometry" />
        </mxCell>
        <mxCell id="tgeR2nkM4_BLuT0nxEA1-36" value="get(session id)" style="edgeStyle=elbowEdgeStyle;rounded=0;orthogonalLoop=1;jettySize=auto;html=1;elbow=vertical;curved=0;" edge="1" parent="1">
          <mxGeometry x="0.0438" y="10" relative="1" as="geometry">
            <mxPoint x="225" y="540" as="sourcePoint" />
            <mxPoint x="345" y="540" as="targetPoint" />
            <mxPoint x="1" as="offset" />
          </mxGeometry>
        </mxCell>
        <mxCell id="tgeR2nkM4_BLuT0nxEA1-37" value="step" style="html=1;verticalAlign=bottom;endArrow=open;dashed=1;endSize=8;edgeStyle=elbowEdgeStyle;elbow=vertical;curved=0;rounded=0;" edge="1" parent="1">
          <mxGeometry relative="1" as="geometry">
            <mxPoint x="225" y="566" as="targetPoint" />
            <Array as="points">
              <mxPoint x="270" y="566" />
            </Array>
            <mxPoint x="345" y="566" as="sourcePoint" />
            <mxPoint as="offset" />
          </mxGeometry>
        </mxCell>
        <mxCell id="tgeR2nkM4_BLuT0nxEA1-38" value="verify step == dopa" style="html=1;verticalAlign=bottom;endArrow=block;edgeStyle=elbowEdgeStyle;elbow=horizontal;curved=0;rounded=0;" edge="1" parent="1">
          <mxGeometry x="0.0625" relative="1" as="geometry">
            <mxPoint x="225" y="589" as="sourcePoint" />
            <Array as="points">
              <mxPoint x="290" y="589" />
            </Array>
            <mxPoint x="225" y="619" as="targetPoint" />
            <mxPoint as="offset" />
          </mxGeometry>
        </mxCell>
        <mxCell id="tgeR2nkM4_BLuT0nxEA1-39" value="set(session id, email, step)" style="edgeStyle=elbowEdgeStyle;rounded=0;orthogonalLoop=1;jettySize=auto;html=1;elbow=vertical;curved=0;" edge="1" parent="1">
          <mxGeometry x="0.2048" y="10" relative="1" as="geometry">
            <mxPoint x="225" y="660" as="sourcePoint" />
            <mxPoint x="349.5" y="660" as="targetPoint" />
            <mxPoint as="offset" />
          </mxGeometry>
        </mxCell>
        <mxCell id="tgeR2nkM4_BLuT0nxEA1-40" value="return result" style="html=1;verticalAlign=bottom;endArrow=open;dashed=1;endSize=8;edgeStyle=elbowEdgeStyle;elbow=horizontal;curved=0;rounded=0;" edge="1" parent="1">
          <mxGeometry x="0.0032" relative="1" as="geometry">
            <mxPoint x="59.5" y="680" as="targetPoint" />
            <Array as="points">
              <mxPoint x="70" y="775" />
            </Array>
            <mxPoint x="215" y="680" as="sourcePoint" />
            <mxPoint as="offset" />
          </mxGeometry>
        </mxCell>
        <mxCell id="tgeR2nkM4_BLuT0nxEA1-41" style="edgeStyle=elbowEdgeStyle;rounded=0;orthogonalLoop=1;jettySize=auto;html=1;elbow=vertical;curved=0;" edge="1" parent="1">
          <mxGeometry relative="1" as="geometry">
            <mxPoint x="59.5" y="760" as="sourcePoint" />
            <mxPoint x="215" y="760" as="targetPoint" />
          </mxGeometry>
        </mxCell>
        <mxCell id="tgeR2nkM4_BLuT0nxEA1-42" value="sendOTP(session id)" style="edgeLabel;html=1;align=center;verticalAlign=middle;resizable=0;points=[];" vertex="1" connectable="0" parent="tgeR2nkM4_BLuT0nxEA1-41">
          <mxGeometry x="-0.2646" y="-1" relative="1" as="geometry">
            <mxPoint x="17" y="-21" as="offset" />
          </mxGeometry>
        </mxCell>
        <mxCell id="tgeR2nkM4_BLuT0nxEA1-48" style="edgeStyle=elbowEdgeStyle;rounded=0;orthogonalLoop=1;jettySize=auto;html=1;elbow=vertical;curved=0;" edge="1" parent="1" target="tgeR2nkM4_BLuT0nxEA1-4">
          <mxGeometry relative="1" as="geometry">
            <mxPoint x="225" y="870" as="sourcePoint" />
            <mxPoint x="765" y="870" as="targetPoint" />
          </mxGeometry>
        </mxCell>
        <mxCell id="tgeR2nkM4_BLuT0nxEA1-49" value="sendOTP(fullname, email)" style="edgeLabel;html=1;align=center;verticalAlign=middle;resizable=0;points=[];" vertex="1" connectable="0" parent="tgeR2nkM4_BLuT0nxEA1-48">
          <mxGeometry x="-0.1259" y="3" relative="1" as="geometry">
            <mxPoint y="-17" as="offset" />
          </mxGeometry>
        </mxCell>
        <mxCell id="tgeR2nkM4_BLuT0nxEA1-43" value="" style="html=1;points=[];perimeter=orthogonalPerimeter;outlineConnect=0;targetShapes=umlLifeline;portConstraint=eastwest;newEdgeStyle={&quot;edgeStyle&quot;:&quot;elbowEdgeStyle&quot;,&quot;elbow&quot;:&quot;vertical&quot;,&quot;curved&quot;:0,&quot;rounded&quot;:0};" vertex="1" parent="1">
          <mxGeometry x="215" y="750" width="10" height="210" as="geometry" />
        </mxCell>
        <mxCell id="tgeR2nkM4_BLuT0nxEA1-50" value="pac, token uuid" style="html=1;verticalAlign=bottom;endArrow=open;dashed=1;endSize=8;edgeStyle=elbowEdgeStyle;elbow=vertical;curved=0;rounded=0;" edge="1" parent="1" source="tgeR2nkM4_BLuT0nxEA1-4">
          <mxGeometry relative="1" as="geometry">
            <mxPoint x="225" y="900" as="targetPoint" />
            <Array as="points">
              <mxPoint x="303" y="900" />
            </Array>
            <mxPoint x="633" y="900" as="sourcePoint" />
            <mxPoint as="offset" />
          </mxGeometry>
        </mxCell>
        <mxCell id="tgeR2nkM4_BLuT0nxEA1-51" value="set(session id, pac, token uuid, step)" style="edgeStyle=elbowEdgeStyle;rounded=0;orthogonalLoop=1;jettySize=auto;html=1;elbow=horizontal;curved=0;" edge="1" parent="1">
          <mxGeometry x="0.0438" y="10" relative="1" as="geometry">
            <mxPoint x="225" y="930" as="sourcePoint" />
            <mxPoint x="349.5" y="930" as="targetPoint" />
            <mxPoint x="1" as="offset" />
          </mxGeometry>
        </mxCell>
        <mxCell id="tgeR2nkM4_BLuT0nxEA1-52" value="return result" style="html=1;verticalAlign=bottom;endArrow=open;dashed=1;endSize=8;edgeStyle=elbowEdgeStyle;elbow=horizontal;curved=0;rounded=0;" edge="1" parent="1">
          <mxGeometry x="0.0032" relative="1" as="geometry">
            <mxPoint x="59.5" y="950" as="targetPoint" />
            <Array as="points">
              <mxPoint x="70" y="1045" />
            </Array>
            <mxPoint x="215" y="950" as="sourcePoint" />
            <mxPoint as="offset" />
          </mxGeometry>
        </mxCell>
        <mxCell id="tgeR2nkM4_BLuT0nxEA1-53" style="edgeStyle=elbowEdgeStyle;rounded=0;orthogonalLoop=1;jettySize=auto;html=1;elbow=vertical;curved=0;" edge="1" parent="1" target="tgeR2nkM4_BLuT0nxEA1-55">
          <mxGeometry relative="1" as="geometry">
            <mxPoint x="59.5" y="1006" as="sourcePoint" />
            <mxPoint x="219.5" y="1006" as="targetPoint" />
          </mxGeometry>
        </mxCell>
        <mxCell id="tgeR2nkM4_BLuT0nxEA1-54" value="verifyOTP(session id, code)" style="edgeLabel;html=1;align=center;verticalAlign=middle;resizable=0;points=[];" vertex="1" connectable="0" parent="tgeR2nkM4_BLuT0nxEA1-53">
          <mxGeometry x="-0.2646" y="-1" relative="1" as="geometry">
            <mxPoint x="17" y="-21" as="offset" />
          </mxGeometry>
        </mxCell>
        <mxCell id="tgeR2nkM4_BLuT0nxEA1-66" style="edgeStyle=elbowEdgeStyle;rounded=0;orthogonalLoop=1;jettySize=auto;html=1;elbow=vertical;curved=0;" edge="1" parent="1">
          <mxGeometry relative="1" as="geometry">
            <mxPoint x="225" y="1180" as="sourcePoint" />
            <mxPoint x="489.5" y="1180" as="targetPoint" />
          </mxGeometry>
        </mxCell>
        <mxCell id="tgeR2nkM4_BLuT0nxEA1-67" value="register(...)" style="edgeLabel;html=1;align=center;verticalAlign=middle;resizable=0;points=[];" vertex="1" connectable="0" parent="tgeR2nkM4_BLuT0nxEA1-66">
          <mxGeometry x="0.3081" y="3" relative="1" as="geometry">
            <mxPoint x="-8" y="-7" as="offset" />
          </mxGeometry>
        </mxCell>
        <mxCell id="tgeR2nkM4_BLuT0nxEA1-55" value="" style="html=1;points=[];perimeter=orthogonalPerimeter;outlineConnect=0;targetShapes=umlLifeline;portConstraint=eastwest;newEdgeStyle={&quot;edgeStyle&quot;:&quot;elbowEdgeStyle&quot;,&quot;elbow&quot;:&quot;vertical&quot;,&quot;curved&quot;:0,&quot;rounded&quot;:0};" vertex="1" parent="1">
          <mxGeometry x="215" y="990" width="10" height="260" as="geometry" />
        </mxCell>
        <mxCell id="tgeR2nkM4_BLuT0nxEA1-56" value="" style="html=1;points=[];perimeter=orthogonalPerimeter;outlineConnect=0;targetShapes=umlLifeline;portConstraint=eastwest;newEdgeStyle={&quot;edgeStyle&quot;:&quot;elbowEdgeStyle&quot;,&quot;elbow&quot;:&quot;vertical&quot;,&quot;curved&quot;:0,&quot;rounded&quot;:0};" vertex="1" parent="1">
          <mxGeometry x="345" y="1014.5" width="10" height="30" as="geometry" />
        </mxCell>
        <mxCell id="tgeR2nkM4_BLuT0nxEA1-57" value="get(session id)" style="edgeStyle=elbowEdgeStyle;rounded=0;orthogonalLoop=1;jettySize=auto;html=1;elbow=vertical;curved=0;" edge="1" parent="1">
          <mxGeometry x="0.0438" y="10" relative="1" as="geometry">
            <mxPoint x="225" y="1014.5" as="sourcePoint" />
            <mxPoint x="345" y="1014.5" as="targetPoint" />
            <mxPoint x="1" as="offset" />
          </mxGeometry>
        </mxCell>
        <mxCell id="tgeR2nkM4_BLuT0nxEA1-58" value="pac, token, step" style="html=1;verticalAlign=bottom;endArrow=open;dashed=1;endSize=8;edgeStyle=elbowEdgeStyle;elbow=vertical;curved=0;rounded=0;" edge="1" parent="1">
          <mxGeometry relative="1" as="geometry">
            <mxPoint x="225" y="1040.5" as="targetPoint" />
            <Array as="points">
              <mxPoint x="270" y="1040.5" />
            </Array>
            <mxPoint x="345" y="1040.5" as="sourcePoint" />
            <mxPoint as="offset" />
          </mxGeometry>
        </mxCell>
        <mxCell id="tgeR2nkM4_BLuT0nxEA1-59" value="verify step == send otp" style="html=1;verticalAlign=bottom;endArrow=block;edgeStyle=elbowEdgeStyle;elbow=horizontal;curved=0;rounded=0;" edge="1" parent="1">
          <mxGeometry x="0.075" y="10" relative="1" as="geometry">
            <mxPoint x="225" y="1063.5" as="sourcePoint" />
            <Array as="points">
              <mxPoint x="290" y="1063.5" />
            </Array>
            <mxPoint x="225" y="1093.5" as="targetPoint" />
            <mxPoint as="offset" />
          </mxGeometry>
        </mxCell>
        <mxCell id="tgeR2nkM4_BLuT0nxEA1-60" value="" style="html=1;points=[];perimeter=orthogonalPerimeter;outlineConnect=0;targetShapes=umlLifeline;portConstraint=eastwest;newEdgeStyle={&quot;edgeStyle&quot;:&quot;elbowEdgeStyle&quot;,&quot;elbow&quot;:&quot;vertical&quot;,&quot;curved&quot;:0,&quot;rounded&quot;:0};" vertex="1" parent="1">
          <mxGeometry x="765" y="1104.5" width="10" height="50" as="geometry" />
        </mxCell>
        <mxCell id="tgeR2nkM4_BLuT0nxEA1-61" style="edgeStyle=elbowEdgeStyle;rounded=0;orthogonalLoop=1;jettySize=auto;html=1;elbow=vertical;curved=0;" edge="1" parent="1" target="tgeR2nkM4_BLuT0nxEA1-60">
          <mxGeometry relative="1" as="geometry">
            <mxPoint x="225" y="1114.5" as="sourcePoint" />
            <mxPoint x="765" y="1114.5" as="targetPoint" />
          </mxGeometry>
        </mxCell>
        <mxCell id="tgeR2nkM4_BLuT0nxEA1-62" value="verifyOTP(token uuid, code)" style="edgeLabel;html=1;align=center;verticalAlign=middle;resizable=0;points=[];" vertex="1" connectable="0" parent="tgeR2nkM4_BLuT0nxEA1-61">
          <mxGeometry x="-0.1259" y="3" relative="1" as="geometry">
            <mxPoint y="-17" as="offset" />
          </mxGeometry>
        </mxCell>
        <mxCell id="tgeR2nkM4_BLuT0nxEA1-63" value="result" style="html=1;verticalAlign=bottom;endArrow=open;dashed=1;endSize=8;edgeStyle=elbowEdgeStyle;elbow=vertical;curved=0;rounded=0;" edge="1" parent="1" source="tgeR2nkM4_BLuT0nxEA1-60">
          <mxGeometry relative="1" as="geometry">
            <mxPoint x="225" y="1144.5" as="targetPoint" />
            <Array as="points">
              <mxPoint x="303" y="1144.5" />
            </Array>
            <mxPoint x="633" y="1144.5" as="sourcePoint" />
            <mxPoint as="offset" />
          </mxGeometry>
        </mxCell>
        <mxCell id="tgeR2nkM4_BLuT0nxEA1-64" value="remove(session id)" style="edgeStyle=elbowEdgeStyle;rounded=0;orthogonalLoop=1;jettySize=auto;html=1;elbow=horizontal;curved=0;" edge="1" parent="1">
          <mxGeometry x="0.0438" y="10" relative="1" as="geometry">
            <mxPoint x="225" y="1220" as="sourcePoint" />
            <mxPoint x="349.5" y="1220" as="targetPoint" />
            <mxPoint x="1" as="offset" />
          </mxGeometry>
        </mxCell>
        <mxCell id="tgeR2nkM4_BLuT0nxEA1-65" value="return result" style="html=1;verticalAlign=bottom;endArrow=open;dashed=1;endSize=8;edgeStyle=elbowEdgeStyle;elbow=horizontal;curved=0;rounded=0;" edge="1" parent="1">
          <mxGeometry x="0.0032" relative="1" as="geometry">
            <mxPoint x="59.5" y="1240" as="targetPoint" />
            <Array as="points">
              <mxPoint x="70" y="1335" />
            </Array>
            <mxPoint x="215" y="1240" as="sourcePoint" />
            <mxPoint as="offset" />
          </mxGeometry>
        </mxCell>
        <mxCell id="tgeR2nkM4_BLuT0nxEA1-69" style="edgeStyle=elbowEdgeStyle;rounded=0;orthogonalLoop=1;jettySize=auto;html=1;elbow=vertical;curved=0;" edge="1" parent="1">
          <mxGeometry relative="1" as="geometry">
            <mxPoint x="495" y="420" as="sourcePoint" />
            <mxPoint x="639.5" y="420" as="targetPoint" />
          </mxGeometry>
        </mxCell>
        <mxCell id="tgeR2nkM4_BLuT0nxEA1-70" value="checkDOPA" style="edgeLabel;html=1;align=center;verticalAlign=middle;resizable=0;points=[];" vertex="1" connectable="0" parent="tgeR2nkM4_BLuT0nxEA1-69">
          <mxGeometry x="0.301" relative="1" as="geometry">
            <mxPoint x="-29" y="-10" as="offset" />
          </mxGeometry>
        </mxCell>
        <mxCell id="tgeR2nkM4_BLuT0nxEA1-71" value="result" style="html=1;verticalAlign=bottom;endArrow=open;dashed=1;endSize=8;edgeStyle=elbowEdgeStyle;elbow=horizontal;curved=0;rounded=0;" edge="1" parent="1">
          <mxGeometry relative="1" as="geometry">
            <mxPoint x="490" y="440" as="targetPoint" />
            <Array as="points" />
            <mxPoint x="646.5" y="440" as="sourcePoint" />
          </mxGeometry>
        </mxCell>
      </root>
    </mxGraphModel>
  </diagram>
</mxfile>
